<svg width="220" height="166" viewBox="0 0 220 166" fill="none" xmlns="http://www.w3.org/2000/svg">
<g clip-path="url(#clip0)">
<path d="M181.638 43.9175H39.5699L112.012 120.471L181.638 43.9175Z" stroke="white" stroke-width="3"/>
<path d="M79.7596 39.4846C79.7645 45.8494 78.2314 52.1208 75.2914 57.7631C72.3514 63.4054 68.0918 68.251 62.8765 71.8859C61.4075 72.9158 59.8692 73.8427 58.2725 74.66C57.7426 74.9323 57.2091 75.191 56.6656 75.4361C56.1761 75.6607 55.6836 75.8718 55.184 76.0726C48.989 78.5855 42.2595 79.4849 35.6236 78.6867C34.4752 78.5506 33.3414 78.3634 32.2224 78.1251C32.1749 78.1149 32.1238 78.1047 32.0764 78.0945C29.7329 77.598 27.4408 76.8835 25.2299 75.9603C18.6386 73.2192 12.9138 68.7369 8.66628 62.9916C4.41877 57.2463 1.80791 50.4535 1.11228 43.338C0.416648 36.2225 1.66234 29.0514 4.71645 22.5896C7.77055 16.1279 12.5185 10.618 18.4537 6.64789C24.3888 2.67778 31.2885 0.396395 38.4166 0.0471507C45.5447 -0.302093 52.6337 1.29391 58.9272 4.66486C65.2208 8.03581 70.4827 13.0552 74.1517 19.1876C77.8206 25.3199 79.7589 32.3351 79.7596 39.4846V39.4846Z" fill="#F1F1F1"/>
<path d="M47.6046 32.1152C47.5706 32.0743 47.5333 32.0369 47.496 31.9994C45.3901 29.8693 42.5305 28.6574 39.5381 28.6268C36.5457 28.5962 33.662 29.7494 31.5132 31.8361C31.4895 31.8565 31.4691 31.8769 31.4487 31.8973C31.4214 31.9212 31.3977 31.945 31.3738 31.9688C30.3156 33.0263 29.4762 34.2826 28.9036 35.6658C28.3311 37.049 28.0367 38.5317 28.0374 40.0291V47.1772C28.038 47.5832 28.1992 47.9725 28.4859 48.2596C28.7725 48.5468 29.161 48.7083 29.5663 48.7089H49.273C49.6783 48.7083 50.0668 48.5468 50.3534 48.2596C50.64 47.9725 50.8013 47.5832 50.8019 47.1772V40.0291C50.8048 37.0748 49.6578 34.2358 47.6046 32.1152V32.1152Z" fill="#2F2E41"/>
<path d="M39.8764 48.6381C44.4853 48.6381 48.2215 44.8951 48.2215 40.2779C48.2215 35.6607 44.4853 31.9177 39.8764 31.9177C35.2675 31.9177 31.5313 35.6607 31.5313 40.2779C31.5313 44.8951 35.2675 48.6381 39.8764 48.6381Z" fill="#FFB7B7"/>
<path d="M48.6478 39.5663L47.6625 32.6701C47.6321 32.4584 47.5243 32.2655 47.3601 32.1289C47.3047 32.0844 47.2442 32.0467 47.1799 32.0166C42.1343 29.6509 37.0175 29.6509 31.9719 32.0098C31.9045 32.0409 31.8416 32.081 31.7849 32.1289C31.7647 32.1459 31.7443 32.1663 31.7239 32.1868C31.589 32.3263 31.5052 32.5074 31.4859 32.7007L30.8268 39.6071C30.8157 39.7252 30.8293 39.8444 30.8668 39.9569C30.9042 40.0694 30.9647 40.1729 31.0443 40.2607C31.1726 40.4022 31.3452 40.4958 31.5336 40.5262C31.5794 40.5359 31.6261 40.5405 31.6729 40.5398H33.3446C33.5062 40.5393 33.6643 40.4929 33.8008 40.4062C33.9373 40.3195 34.0465 40.1959 34.1158 40.0496L34.8395 38.4975C34.8858 38.3969 34.9636 38.3142 35.0612 38.2619C35.1587 38.2097 35.2706 38.1908 35.3798 38.2082C35.489 38.2255 35.5896 38.2781 35.6663 38.358C35.7429 38.4379 35.7914 38.5406 35.8044 38.6507L35.9471 39.7944C35.9736 39.9998 36.0736 40.1886 36.2286 40.3258C36.3836 40.4629 36.5831 40.5389 36.7899 40.5398H47.8085C47.9527 40.5405 48.0946 40.5029 48.2196 40.4309C48.3066 40.3834 48.3848 40.3212 48.4507 40.2471C48.5304 40.1544 48.5892 40.0456 48.6232 39.9282C48.6572 39.8107 48.6656 39.6873 48.6478 39.5663V39.5663Z" fill="#2F2E41"/>
<path d="M60.5126 63.9549L62.8774 71.8859C61.4084 72.9159 59.8701 73.8428 58.2734 74.6601C57.7435 74.9324 57.21 75.1911 56.6665 75.4361L54.2166 64.9148L53.2653 60.8336L59.3811 60.1528L60.5126 63.9549Z" fill="#FFB7B7"/>
<path d="M32.3694 62.6377L32.1656 73.353L32.0773 78.0946C29.7338 77.5981 27.4417 76.8836 25.2308 75.9604L26.0429 65.8101L26.2468 63.2504L32.3694 62.6377Z" fill="#FFB7B7"/>
<path d="M60.5126 63.9549L54.3695 64.8773L54.4443 65.8883L55.1849 76.0726C48.9899 78.5855 42.2603 79.4848 35.6244 78.6867C34.476 78.5506 33.3423 78.3634 32.2232 78.1251C32.7261 76.0079 33.1611 74.1018 32.6242 73.7273C32.4625 73.6138 32.3091 73.4887 32.1655 73.3529C29.6614 70.96 30.5856 65.5581 30.5856 65.5581L26.0429 65.81L24.4698 65.8985C24.4698 65.8985 25.1493 55.0062 28.2072 55.0062H31.9447L49.9525 53.3042C49.9525 53.3042 55.0491 51.6023 56.4081 53.985C57.1217 55.2342 58.3923 57.8824 59.4423 60.1221C60.3936 62.1576 61.1649 63.8562 61.1649 63.8562L60.5126 63.9549Z" fill="#2F2E41"/>
<path d="M219.064 39.9196C219 46.1544 217.462 52.2852 214.574 57.8088C211.687 63.3325 207.534 68.0915 202.455 71.6953C202.367 71.7566 202.275 71.8212 202.183 71.8859C202.088 71.954 201.989 72.0221 201.891 72.0867C201.32 72.4816 200.738 72.8594 200.144 73.2202C199.309 73.7308 198.453 74.2107 197.579 74.66C197.552 74.6737 197.521 74.6873 197.494 74.7009C196.991 74.9596 196.484 75.2046 195.972 75.4361C195.955 75.4429 195.941 75.4497 195.924 75.4565C195.806 75.511 195.68 75.5689 195.558 75.6199C194.61 76.042 193.641 76.4267 192.656 76.767C191.817 77.0632 190.965 77.3287 190.101 77.5635C188.334 78.0519 186.534 78.4136 184.715 78.646C183.165 78.8458 181.604 78.9526 180.04 78.9659C179.911 78.9693 179.782 78.9693 179.653 78.9693C178.8 78.9693 177.951 78.9421 177.111 78.8876C176.377 78.84 175.65 78.7753 174.93 78.6868C173.819 78.5541 172.722 78.3771 171.641 78.1456C171.594 78.1388 171.546 78.1286 171.498 78.1184C171.461 78.1116 171.42 78.1013 171.383 78.0945C170.296 77.8665 169.225 77.5874 168.176 77.2674C167.187 76.9679 166.216 76.6298 165.264 76.2531C165.019 76.1578 164.778 76.0624 164.536 75.9603C163.935 75.7084 163.341 75.4464 162.756 75.1638C162.586 75.0855 162.42 75.0039 162.253 74.9222C161.689 74.6465 161.132 74.3571 160.588 74.0508C159.933 73.6866 159.288 73.3042 158.655 72.9037C157.857 72.3999 157.075 71.8689 156.317 71.3073C149.586 66.3524 144.599 59.3829 142.078 51.4047C139.557 43.4265 139.631 34.852 142.289 26.9187C144.948 18.9853 150.054 12.1033 156.87 7.26577C163.687 2.42823 171.861 -0.114683 180.213 0.00397134C201.825 0.304718 219.297 18.2676 219.064 39.9196Z" fill="#F1F1F1"/>
<path d="M171.383 78.0942C170.296 77.8661 169.225 77.587 168.175 77.2671L171.78 54.8732L175.514 54.7574L182.286 54.543L185.759 54.4341C185.759 54.4341 188.222 65.2787 190.101 77.5632C188.334 78.0515 186.534 78.4133 184.715 78.6456C183.165 78.8454 181.604 78.9523 180.04 78.9656C179.911 78.969 179.782 78.969 179.653 78.969C178.8 78.969 177.951 78.9418 177.111 78.8873C176.377 78.8397 175.65 78.775 174.93 78.6865C173.819 78.5537 172.722 78.3767 171.641 78.1453C171.594 78.1385 171.546 78.1282 171.498 78.118C171.461 78.1112 171.42 78.101 171.383 78.0942Z" fill="#CBCBCB"/>
<path d="M171.641 78.1453C171.594 78.1385 171.546 78.1283 171.498 78.1181C171.461 78.1113 171.42 78.1011 171.383 78.0943C170.296 77.8662 169.225 77.5871 168.175 77.2671C167.187 76.9676 166.216 76.6295 165.264 76.2528C165.019 76.1575 164.778 76.0622 164.536 75.9601C163.935 75.7082 163.341 75.4461 162.756 75.1636C162.586 75.0853 162.42 75.0036 162.253 74.9219L161.954 58.1545L171.128 54.2163C171.128 54.2163 171.159 54.4614 175.514 54.7575C176.343 57.467 171.641 78.1453 171.641 78.1453Z" fill="#2F2E41"/>
<path d="M199.061 57.3617L197.331 66.467L197.494 74.7009C196.991 74.9596 196.484 75.2047 195.972 75.4361C195.955 75.443 195.941 75.4498 195.924 75.4566C195.806 75.511 195.68 75.5689 195.558 75.62C194.61 76.042 193.641 76.4267 192.656 76.7671C191.817 77.0632 190.965 77.3287 190.101 77.5636C188.334 78.0519 186.534 78.4136 184.715 78.646C183.165 78.8458 181.604 78.9526 180.04 78.966L179.86 64.3737C179.48 59.6695 180.74 56.5584 182.286 54.5434C190.526 53.4405 190.342 53.3418 190.342 53.3418L199.078 57.28L199.061 57.3617Z" fill="#2F2E41"/>
<path d="M165.885 59.4687L165.264 76.2531C165.019 76.1577 164.778 76.0624 164.536 75.9603C163.935 75.7084 163.341 75.4463 162.756 75.1638C162.586 75.0855 162.42 75.0038 162.253 74.9221C161.689 74.6464 161.132 74.3571 160.588 74.0508C159.933 73.6865 159.288 73.3042 158.655 72.9037L161.954 58.1548L165.885 59.4687Z" fill="#2F2E41"/>
<path d="M202.455 71.6952C202.367 71.7565 202.275 71.8211 202.183 71.8858C202.088 71.9539 201.989 72.022 201.891 72.0866C201.32 72.4815 200.738 72.8593 200.144 73.2201C199.309 73.7307 198.454 74.2106 197.579 74.66C197.552 74.6736 197.521 74.6872 197.494 74.7008C196.976 74.9673 196.453 75.2194 195.925 75.457L195.925 75.4564L195.303 58.6142L199.061 57.3616L199.234 57.3037L202.455 71.6952Z" fill="#2F2E41"/>
<path d="M189.031 41.7752C190.541 36.6154 187.6 31.2094 182.463 29.7005C177.326 28.1917 171.937 31.1513 170.427 36.3111C168.917 41.471 171.857 46.877 176.995 48.3859C182.132 49.8947 187.521 46.935 189.031 41.7752Z" fill="#9F616A"/>
<path d="M169.967 41.4843V37.6954C169.967 37.6954 166.917 34.0967 170.272 33.1902C170.272 33.1902 171.187 24.1252 179.117 28.3555C179.117 28.3555 190.097 26.5425 188.877 32.888C188.877 32.888 191.622 31.2314 190.707 35.4618L188.937 42.2762C188.937 42.2762 189.792 37.7748 187.047 37.1704L185.522 36.2639C185.522 36.2639 181.252 40.4943 174.847 35.3574C174.847 35.3574 172.102 34.7011 172.407 37.4206C172.712 40.1401 169.967 41.4843 169.967 41.4843Z" fill="#2F2E41"/>
<path d="M149.794 113.62C149.799 119.985 148.266 126.257 145.326 131.899C142.386 137.541 138.126 142.387 132.911 146.022C132.816 146.09 132.717 146.158 132.619 146.222C132.048 146.617 131.466 146.995 130.872 147.356C130.036 147.866 129.181 148.346 128.307 148.796C127.777 149.068 127.244 149.327 126.7 149.572C126.564 149.633 126.425 149.698 126.285 149.756C125.337 150.178 124.369 150.562 123.384 150.903C120.81 151.807 118.149 152.437 115.443 152.782C113.764 152.998 112.073 153.106 110.381 153.105C109.528 153.105 108.679 153.078 107.839 153.023C107.105 152.976 106.378 152.911 105.658 152.822C104.499 152.683 103.354 152.496 102.226 152.254C102.189 152.247 102.148 152.237 102.111 152.23C99.7674 151.734 97.4753 151.019 95.2643 150.096C94.6631 149.844 94.0685 149.582 93.484 149.299C92.7467 148.952 92.0242 148.581 91.3163 148.186C85.2327 144.819 80.1461 139.9 76.5721 133.928C72.9981 127.957 71.0639 121.144 70.9656 114.182C70.8672 107.22 72.6083 100.355 76.0121 94.2845C79.416 88.2138 84.3617 83.1527 90.3478 79.6143C96.3338 76.076 103.147 74.1863 110.098 74.1367C117.048 74.0872 123.887 75.8797 129.923 79.3324C135.959 82.785 140.976 87.7752 144.466 93.7968C147.955 99.8184 149.794 106.657 149.794 113.62V113.62Z" fill="#F1F1F1"/>
<path d="M109.298 123.352C114.159 123.352 118.099 119.404 118.099 114.535C118.099 109.665 114.159 105.718 109.298 105.718C104.437 105.718 100.497 109.665 100.497 114.535C100.497 119.404 104.437 123.352 109.298 123.352Z" fill="#FFB8B8"/>
<path d="M105.658 152.823C104.499 152.683 103.354 152.496 102.226 152.254L103.296 128.128L103.449 127.968L105.641 125.65H112.61L115.182 128.145L115.399 128.359L120.9 133.639L123.384 150.903C120.81 151.807 118.149 152.437 115.443 152.782C113.764 152.998 112.073 153.106 110.381 153.105C109.528 153.105 108.679 153.078 107.839 153.024C107.105 152.976 106.378 152.911 105.658 152.823Z" fill="#CBCBCB"/>
<path d="M93.484 149.3C92.7468 148.952 92.0242 148.581 91.3163 148.187C91.245 141.651 91.1974 137.311 91.1974 137.311L92.0264 136.804C92.0363 136.799 92.0465 136.794 92.0569 136.791L101.465 131.065L103.439 127.852L103.45 127.968L104.03 134.741C105.78 140.725 107.054 146.838 107.839 153.023C107.105 152.976 106.378 152.911 105.658 152.823C104.499 152.683 103.354 152.496 102.226 152.254C102.189 152.247 102.148 152.237 102.111 152.23C99.7674 151.734 97.4753 151.019 95.2644 150.096C94.6631 149.844 94.0685 149.582 93.484 149.3Z" fill="#2F2E41"/>
<path d="M123.384 150.903C120.81 151.807 118.149 152.437 115.443 152.782C115.068 150.585 114.931 148.354 115.032 146.127C115.766 134.374 114.074 127.852 114.808 127.852L115.182 128.145L119.799 131.801L125.878 134.033H125.881L130.064 135.569L130.801 135.841V136.191C130.804 137.403 130.811 141.644 130.872 147.356C130.036 147.867 129.181 148.347 128.307 148.796C127.777 149.068 127.244 149.327 126.7 149.572C126.564 149.633 126.425 149.698 126.285 149.756C125.337 150.178 124.369 150.563 123.384 150.903Z" fill="#2F2E41"/>
<path d="M100.972 117.293C100.972 117.293 101.72 115.978 101.546 111.583C101.372 107.188 108.052 109.673 113.634 109.254C119.216 108.835 118.035 116.592 118.035 116.592C118.035 116.592 118.437 116.131 119.3 112.387C120.162 108.643 118.204 104.913 118.204 104.913C117.627 100.979 114.52 102.24 114.52 102.24C116.017 102.823 115.729 104.071 115.729 104.071C114.463 101.846 111.355 103.107 111.355 103.107C107.211 100.502 103.011 103.933 103.011 103.933C98.0047 105.071 100.941 109.06 100.941 109.06C95.906 111.609 100.972 117.293 100.972 117.293Z" fill="#2F2E41"/>
<path d="M87.0454 145.443C87.1746 142.451 87.2324 140.521 87.1643 140.252C86.8144 138.85 91.5916 136.971 92.0265 136.804C92.0364 136.799 92.0465 136.794 92.057 136.791L93.0289 137.311L93.4841 149.3C92.7468 148.952 92.0243 148.581 91.3164 148.187C89.835 147.366 88.4083 146.449 87.0454 145.443V145.443Z" fill="#2F2E41"/>
<path d="M130.872 147.356C130.036 147.867 129.181 148.347 128.307 148.796C127.777 149.068 127.243 149.327 126.7 149.572C126.564 149.633 126.425 149.698 126.285 149.756L124.756 134.633L125.65 133.979C125.65 133.979 125.732 133.999 125.878 134.033H125.881C126.598 134.21 128.8 134.796 130.064 135.569C130.346 135.729 130.596 135.94 130.801 136.192C130.926 136.342 130.988 136.534 130.974 136.729C130.933 137.124 131.613 140.868 132.619 146.223C132.048 146.617 131.466 146.995 130.872 147.356Z" fill="#2F2E41"/>
<path d="M179.653 86.5795C184.614 86.5795 188.635 82.5508 188.635 77.581C188.635 72.6113 184.614 68.5825 179.653 68.5825C174.692 68.5825 170.671 72.6113 170.671 77.581C170.671 82.5508 174.692 86.5795 179.653 86.5795Z" fill="#006580"/>
<path d="M178.797 81.3797L176.108 77.9167L177.672 76.6984L178.945 78.3381L183.245 73.7905L184.683 75.1551L178.797 81.3797Z" fill="white"/>
<path d="M40.3472 87.2817C45.3079 87.2817 49.3294 83.2529 49.3294 78.2832C49.3294 73.3134 45.3079 69.2847 40.3472 69.2847C35.3864 69.2847 31.3649 73.3134 31.3649 78.2832C31.3649 83.2529 35.3864 87.2817 40.3472 87.2817Z" fill="#006580"/>
<path d="M39.4913 82.0819L36.8027 78.6188L38.3663 77.4006L39.6391 79.0402L43.9396 74.4927L45.3775 75.8573L39.4913 82.0819Z" fill="white"/>
<path d="M110.381 162.098C115.342 162.098 119.363 158.069 119.363 153.1C119.363 148.13 115.342 144.101 110.381 144.101C105.42 144.101 101.398 148.13 101.398 153.1C101.398 158.069 105.42 162.098 110.381 162.098Z" fill="#006580"/>
<path d="M109.525 156.898L106.836 153.435L108.4 152.217L109.673 153.857L113.973 149.309L115.411 150.674L109.525 156.898Z" fill="white"/>
</g>
<defs>
<clipPath id="clip0">
<rect width="218.132" height="166" fill="white" transform="translate(0.933899)"/>
</clipPath>
</defs>
</svg>
