<svg width="286" height="166" viewBox="0 0 286 166" fill="none" xmlns="http://www.w3.org/2000/svg">
<g clip-path="url(#clip0)">
<path d="M275.973 166H10.0265C7.55764 165.997 5.19064 164.891 3.44486 162.924C1.69907 160.957 0.717074 158.291 0.714294 155.509V10.4907C0.717074 7.70936 1.69907 5.04282 3.44486 3.07611C5.19064 1.1094 7.55764 0.00313108 10.0265 0H275.973C278.442 0.00313108 280.809 1.1094 282.555 3.07611C284.301 5.04282 285.283 7.70936 285.286 10.4907V155.509C285.283 158.291 284.301 160.957 282.555 162.924C280.809 164.891 278.442 165.997 275.973 166V166ZM10.0265 1.2342C7.8481 1.23698 5.75958 2.2131 4.21919 3.94843C2.67879 5.68376 1.81232 8.03658 1.80985 10.4907V155.509C1.81232 157.963 2.67879 160.316 4.21919 162.052C5.75958 163.787 7.8481 164.763 10.0265 164.766H275.973C278.152 164.763 280.24 163.787 281.781 162.052C283.321 160.316 284.188 157.963 284.19 155.509V10.4907C284.188 8.03658 283.321 5.68376 281.781 3.94843C280.24 2.2131 278.152 1.23698 275.973 1.2342H10.0265Z" fill="#3F3D56"/>
<path d="M24.173 36.1002C27.2214 36.1002 29.6927 33.6137 29.6927 30.5463C29.6927 27.479 27.2214 24.9924 24.173 24.9924C21.1245 24.9924 18.6533 27.479 18.6533 30.5463C18.6533 33.6137 21.1245 36.1002 24.173 36.1002Z" fill="#CCCCCC"/>
<path d="M24.173 57.0817C27.2214 57.0817 29.6927 54.5951 29.6927 51.5278C29.6927 48.4604 27.2214 45.9739 24.173 45.9739C21.1245 45.9739 18.6533 48.4604 18.6533 51.5278C18.6533 54.5951 21.1245 57.0817 24.173 57.0817Z" fill="#CCCCCC"/>
<path d="M24.173 78.0631C27.2214 78.0631 29.6927 75.5766 29.6927 72.5092C29.6927 69.4419 27.2214 66.9553 24.173 66.9553C21.1245 66.9553 18.6533 69.4419 18.6533 72.5092C18.6533 75.5766 21.1245 78.0631 24.173 78.0631Z" fill="#CCCCCC"/>
<path d="M24.173 99.0446C27.2214 99.0446 29.6927 96.558 29.6927 93.4907C29.6927 90.4233 27.2214 87.9368 24.173 87.9368C21.1245 87.9368 18.6533 90.4233 18.6533 93.4907C18.6533 96.558 21.1245 99.0446 24.173 99.0446Z" fill="#CCCCCC"/>
<path d="M117.088 141.007C120.136 141.007 122.608 138.521 122.608 135.454C122.608 132.386 120.136 129.9 117.088 129.9C114.04 129.9 111.568 132.386 111.568 135.454C111.568 138.521 114.04 141.007 117.088 141.007Z" fill="#CCCCCC"/>
<path d="M77.2236 141.007C80.272 141.007 82.7433 138.521 82.7433 135.454C82.7433 132.386 80.272 129.9 77.2236 129.9C74.1751 129.9 71.7039 132.386 71.7039 135.454C71.7039 138.521 74.1751 141.007 77.2236 141.007Z" fill="#CCCCCC"/>
<path d="M199.27 141.007C202.319 141.007 204.79 138.521 204.79 135.454C204.79 132.386 202.319 129.9 199.27 129.9C196.222 129.9 193.751 132.386 193.751 135.454C193.751 138.521 196.222 141.007 199.27 141.007Z" fill="#CCCCCC"/>
<path d="M157.566 141.007C160.614 141.007 163.086 138.521 163.086 135.454C163.086 132.386 160.614 129.9 157.566 129.9C154.517 129.9 152.046 132.386 152.046 135.454C152.046 138.521 154.517 141.007 157.566 141.007Z" fill="#CCCCCC"/>
<path d="M233.309 31.1636H51.7717C51.609 31.1636 51.453 31.0986 51.338 30.9829C51.223 30.8672 51.1584 30.7102 51.1584 30.5465C51.1584 30.3829 51.223 30.2259 51.338 30.1102C51.453 29.9945 51.609 29.9294 51.7717 29.9294H233.309C233.471 29.9294 233.627 29.9945 233.742 30.1102C233.857 30.2259 233.922 30.3829 233.922 30.5465C233.922 30.7102 233.857 30.8672 233.742 30.9829C233.627 31.0986 233.471 31.1636 233.309 31.1636Z" fill="#CCCCCC"/>
<path d="M233.309 52.1451H51.7717C51.609 52.1451 51.453 52.0801 51.338 51.9643C51.223 51.8486 51.1584 51.6917 51.1584 51.528C51.1584 51.3643 51.223 51.2074 51.338 51.0916C51.453 50.9759 51.609 50.9109 51.7717 50.9109H233.309C233.471 50.9109 233.627 50.9759 233.742 51.0916C233.857 51.2074 233.922 51.3643 233.922 51.528C233.922 51.6917 233.857 51.8486 233.742 51.9643C233.627 52.0801 233.471 52.1451 233.309 52.1451Z" fill="#CCCCCC"/>
<path d="M233.309 73.1263H51.7717C51.609 73.1263 51.453 73.0613 51.338 72.9455C51.223 72.8298 51.1584 72.6729 51.1584 72.5092C51.1584 72.3455 51.223 72.1886 51.338 72.0728C51.453 71.9571 51.609 71.8921 51.7717 71.8921H233.309C233.471 71.8921 233.627 71.9571 233.742 72.0728C233.857 72.1886 233.922 72.3455 233.922 72.5092C233.922 72.6729 233.857 72.8298 233.742 72.9455C233.627 73.0613 233.471 73.1263 233.309 73.1263Z" fill="#CCCCCC"/>
<path d="M233.309 94.1078H51.7717C51.609 94.1078 51.453 94.0427 51.338 93.927C51.223 93.8113 51.1584 93.6543 51.1584 93.4906C51.1584 93.327 51.223 93.17 51.338 93.0543C51.453 92.9386 51.609 92.8735 51.7717 92.8735H233.309C233.471 92.8735 233.627 92.9386 233.742 93.0543C233.857 93.17 233.922 93.327 233.922 93.4906C233.922 93.6543 233.857 93.8113 233.742 93.927C233.627 94.0427 233.471 94.1078 233.309 94.1078Z" fill="#CCCCCC"/>
<path d="M86.1163 115.089H68.3306C67.5176 115.088 66.7381 114.763 66.1633 114.185C65.5884 113.606 65.265 112.822 65.2641 112.004V95.3421C65.265 94.5241 65.5884 93.7398 66.1633 93.1614C66.7381 92.5829 67.5176 92.2575 68.3306 92.2566H86.1163C86.9293 92.2575 87.7087 92.5829 88.2836 93.1614C88.8584 93.7398 89.1818 94.5241 89.1828 95.3421V112.004C89.1818 112.822 88.8584 113.606 88.2836 114.185C87.7087 114.763 86.9293 115.088 86.1163 115.089V115.089Z" fill="#006580"/>
<path d="M125.981 115.089H108.195C107.382 115.088 106.603 114.763 106.028 114.185C105.453 113.606 105.13 112.822 105.129 112.004V74.3606C105.13 73.5426 105.453 72.7584 106.028 72.1799C106.603 71.6015 107.382 71.2761 108.195 71.2751H125.981C126.794 71.2761 127.573 71.6015 128.148 72.1799C128.723 72.7584 129.047 73.5426 129.048 74.3606V112.004C129.047 112.822 128.723 113.606 128.148 114.185C127.573 114.763 126.794 115.088 125.981 115.089V115.089Z" fill="#006580"/>
<path d="M166.459 115.089H148.673C147.86 115.088 147.08 114.763 146.506 114.184C145.931 113.606 145.607 112.822 145.606 112.004V53.3792C145.607 52.5612 145.931 51.7769 146.506 51.1985C147.08 50.62 147.86 50.2946 148.673 50.2937H166.459C167.272 50.2946 168.051 50.62 168.626 51.1985C169.201 51.7769 169.524 52.5612 169.525 53.3792V112.004C169.524 112.822 169.201 113.606 168.626 114.184C168.051 114.763 167.272 115.088 166.459 115.089V115.089Z" fill="#006580"/>
<path d="M208.163 115.089H190.378C189.565 115.088 188.785 114.763 188.21 114.185C187.635 113.606 187.312 112.822 187.311 112.004V33.0149C187.312 32.1969 187.635 31.4126 188.21 30.8342C188.785 30.2558 189.565 29.9304 190.378 29.9294H208.163C208.976 29.9304 209.756 30.2558 210.331 30.8342C210.905 31.4126 211.229 32.1969 211.23 33.0149V112.004C211.229 112.822 210.905 113.606 210.331 114.185C209.756 114.763 208.976 115.088 208.163 115.089V115.089Z" fill="#006580"/>
<path d="M241.889 83.9254C241.558 83.9246 241.227 83.8915 240.902 83.8266H240.902C240.843 83.8147 240.783 83.802 240.724 83.7883L169.354 67.1732C168.579 66.9926 168.064 66.505 168.156 66.0388C168.195 65.9015 168.271 65.7777 168.376 65.6809C168.481 65.5841 168.61 65.5181 168.75 65.4903C169.095 65.3954 169.457 65.3873 169.806 65.4668L241.619 80.4625C243.236 80.7999 244.359 81.7922 244.175 82.7212C244.078 83.2073 243.65 83.5843 242.969 83.7826C242.617 83.8806 242.254 83.9287 241.889 83.9254Z" fill="#3F3D56"/>
<path d="M226.637 81.637C227.002 81.8719 227.41 82.0163 227.832 82.0601C228.255 82.1038 228.68 82.0459 229.08 81.8903C229.479 81.7347 229.842 81.4853 230.144 81.1596C230.445 80.8339 230.678 80.4399 230.825 80.0053L241.128 80.2402L238.274 75.2861L228.928 75.8226C228.244 75.6004 227.509 75.6604 226.862 75.9912C226.216 76.3219 225.703 76.9005 225.42 77.6172C225.138 78.3339 225.106 79.1389 225.33 79.8798C225.554 80.6207 226.019 81.2459 226.637 81.637V81.637Z" fill="#FFB8B8"/>
<path d="M231.37 79.5461L231.315 76.3428C231.311 76.0122 231.431 75.6921 231.651 75.4455C231.871 75.1988 232.175 75.0436 232.504 75.0103L251.257 73.1979L266.882 68.0678C267.354 67.9129 267.851 67.8535 268.346 67.8929C268.841 67.9324 269.323 68.07 269.764 68.2976C270.205 68.5253 270.597 68.8385 270.916 69.219C271.235 69.5996 271.475 70.0399 271.623 70.5143C271.771 70.9888 271.823 71.488 271.777 71.9828C271.73 72.4776 271.586 72.9582 271.352 73.3966C271.118 73.835 270.8 74.2226 270.415 74.5367C270.031 74.8508 269.587 75.0852 269.112 75.2263L251.817 80.354L232.717 80.8398C232.428 80.8468 232.145 80.7586 231.912 80.5888C231.678 80.4189 231.506 80.1769 231.423 79.8999C231.39 79.7849 231.371 79.6659 231.37 79.5461V79.5461Z" fill="#3F3D56"/>
<path d="M258.913 162.915L255.173 162.914L253.394 148.721L258.914 148.721L258.913 162.915Z" fill="#FFB8B8"/>
<path d="M259.527 166L248.488 165.999V165.864C248.488 165.314 248.599 164.77 248.815 164.263C249.031 163.755 249.347 163.294 249.746 162.905C250.145 162.517 250.619 162.209 251.14 161.999C251.661 161.788 252.22 161.68 252.784 161.68H252.785L259.527 161.68L259.527 166Z" fill="#2F2E41"/>
<path d="M269.339 162.915L265.599 162.914L263.82 148.721L269.34 148.721L269.339 162.915Z" fill="#FFB8B8"/>
<path d="M270.566 166L258.914 165.999V165.864C258.914 165.314 259.031 164.77 259.259 164.263C259.487 163.755 259.821 163.294 260.242 162.905C260.663 162.517 261.163 162.209 261.714 161.999C262.264 161.788 262.854 161.68 263.449 161.68H263.45L270.567 161.68L270.566 166Z" fill="#2F2E41"/>
<path d="M271.793 106.799L270.944 157.658C270.941 157.819 270.906 157.978 270.84 158.125C270.773 158.271 270.678 158.402 270.559 158.51C270.44 158.618 270.301 158.699 270.149 158.75C269.998 158.801 269.838 158.819 269.679 158.805L265.517 158.423C265.244 158.398 264.989 158.276 264.796 158.079C264.604 157.882 264.487 157.623 264.466 157.347L262.029 125.623C262.024 125.548 261.99 125.479 261.935 125.429C261.88 125.378 261.808 125.351 261.734 125.353C261.66 125.354 261.59 125.384 261.537 125.436C261.484 125.489 261.453 125.56 261.45 125.634L260.232 158.085C260.221 158.388 260.094 158.674 259.878 158.884C259.662 159.094 259.373 159.212 259.073 159.212H254.61C254.315 159.212 254.03 159.098 253.815 158.894C253.6 158.689 253.47 158.41 253.452 158.112L250.328 106.506L268.892 101.822L271.793 106.799Z" fill="#2F2E41"/>
<path d="M258.301 58.6245C262.365 58.6245 265.66 55.4472 265.66 51.5278C265.66 47.6084 262.365 44.4312 258.301 44.4312C254.236 44.4312 250.941 47.6084 250.941 51.5278C250.941 55.4472 254.236 58.6245 258.301 58.6245Z" fill="#FFB8B8"/>
<path d="M249.377 108.236C249.252 108.116 249.152 107.972 249.083 107.812C249.014 107.653 248.978 107.481 248.976 107.308L248.489 72.5505C248.46 70.7824 248.993 69.0506 250.011 67.6037C251.03 66.1569 252.482 65.0695 254.159 64.4977C254.836 61.4343 258.437 61.0506 260.537 61.0964C261.061 61.1077 261.574 61.2448 262.034 61.4963C262.493 61.7478 262.885 62.1062 263.177 62.541L264.682 64.7938L267.999 66.7342C269.534 67.6283 270.745 68.986 271.457 70.6113C272.169 72.2366 272.345 74.0456 271.96 75.7773L271.449 78.0954C269.651 86.3001 269.822 94.8129 271.949 102.939L272.976 106.849C273.03 107.053 273.034 107.266 272.988 107.472C272.942 107.677 272.848 107.869 272.712 108.03C272.577 108.192 272.405 108.319 272.211 108.401C272.016 108.482 271.805 108.517 271.595 108.501L270.401 108.409C270.091 108.385 269.8 108.254 269.578 108.037C269.355 107.82 269.217 107.532 269.186 107.224L268.989 105.253C268.985 105.217 268.968 105.183 268.941 105.159C268.914 105.134 268.879 105.121 268.842 105.121C268.806 105.121 268.771 105.134 268.744 105.159C268.717 105.183 268.7 105.217 268.696 105.253L268.505 107.161C268.472 107.483 268.323 107.783 268.083 108.002C267.844 108.221 267.533 108.345 267.208 108.35L250.32 108.609C250.313 108.609 250.306 108.61 250.299 108.61C249.954 108.61 249.624 108.476 249.377 108.236V108.236Z" fill="#3F3D56"/>
<path d="M258.941 55.4151C258.971 56.4265 259.668 57.0116 260.524 57.5414C261.38 58.0712 262.38 58.3009 263.361 58.5225C263.492 58.5929 263.64 58.6279 263.789 58.6243C263.938 58.6206 264.083 58.5783 264.211 58.5014C264.34 58.4246 264.446 58.3158 264.52 58.1856C264.594 58.0553 264.634 57.908 264.635 57.7579L265.534 54.3137C265.852 53.2135 266.083 52.0897 266.226 50.9529C266.443 48.7654 265.928 46.4123 264.412 44.8307C262.896 43.2491 260.267 42.6872 258.45 43.9058C256.294 41.1327 246.44 47.2597 248.871 49.1881C249.303 49.5311 249.964 49.097 250.513 49.0549C251.062 49.0129 251.677 49.1101 252.026 49.5392C252.481 50.0997 252.283 50.9347 252.471 51.6339C252.548 51.88 252.674 52.1081 252.839 52.3051C253.005 52.5022 253.207 52.6642 253.436 52.782C253.664 52.8997 253.913 52.9708 254.168 52.9912C254.424 53.0116 254.681 52.9808 254.925 52.9006C255.378 52.6754 255.805 52.399 256.197 52.0766C256.618 51.7942 257.15 51.5855 257.624 51.7636C258.249 51.9984 258.471 52.7687 258.527 53.4379C258.623 54.1053 258.761 54.7658 258.941 55.4151V55.4151Z" fill="#2F2E41"/>
<path opacity="0.2" d="M257.133 75.2861L255.946 89.498L249.714 104.29L258.914 89.788L257.133 75.2861Z" fill="black"/>
<path d="M248.272 109.8C248.598 109.532 248.863 109.194 249.047 108.809C249.232 108.425 249.332 108.004 249.341 107.575C249.349 107.147 249.266 106.722 249.097 106.33C248.928 105.938 248.677 105.589 248.362 105.307L252.167 95.6506L246.99 96.7218L244.17 105.728C243.743 106.301 243.537 107.015 243.589 107.735C243.642 108.454 243.95 109.129 244.456 109.631C244.961 110.133 245.629 110.427 246.332 110.458C247.036 110.49 247.726 110.255 248.272 109.8V109.8Z" fill="#FFB8B8"/>
<path d="M248.142 105.446L245.078 104.366C244.762 104.253 244.501 104.029 244.346 103.737C244.191 103.446 244.153 103.108 244.24 102.791L249.296 84.7007L250.066 68.3514C250.09 67.8579 250.213 67.3738 250.429 66.9274C250.646 66.4809 250.95 66.0809 251.326 65.7507C251.702 65.4205 252.141 65.1666 252.618 65.0038C253.096 64.841 253.601 64.7726 254.105 64.8025C254.61 64.8324 255.103 64.96 255.557 65.1779C256.01 65.3959 256.415 65.6998 256.747 66.072C257.079 66.4442 257.333 66.8772 257.492 67.346C257.652 67.8147 257.714 68.3098 257.676 68.8024L256.3 86.7045L249.859 104.649C249.761 104.92 249.575 105.152 249.329 105.31C249.083 105.467 248.791 105.541 248.498 105.521C248.376 105.512 248.257 105.487 248.142 105.446Z" fill="#3F3D56"/>
<path d="M233.309 115.089H51.7717C51.609 115.089 51.453 115.024 51.338 114.908C51.223 114.793 51.1584 114.636 51.1584 114.472C51.1584 114.308 51.223 114.151 51.338 114.036C51.453 113.92 51.609 113.855 51.7717 113.855H233.309C233.471 113.855 233.627 113.92 233.742 114.036C233.857 114.151 233.922 114.308 233.922 114.472C233.922 114.636 233.857 114.793 233.742 114.908C233.627 115.024 233.471 115.089 233.309 115.089Z" fill="#3F3D56"/>
</g>
<defs>
<clipPath id="clip0">
<rect width="284.571" height="166" fill="white" transform="translate(0.714294)"/>
</clipPath>
</defs>
</svg>
